# xmcd
#
# Track frame offsets: 
#        150
#        12825
#        23174
#        31033
#        48233
#        68410
#        84307
#        104782
#        117306
#        131033
#        145508
#        157733
#        168908
#
# Disc length: 2331 seconds
#
# Revision: 0
# Processed by: cddbd v1.5.2PL0 Copyright (c) Steve Scherf et al.
# Submitted via: ExactAudioCopy v0.99pb5
#
DISCID=9509190d
DTITLE=McLamb, Mullen, and Preddy - Merry Christmas From
DYEAR=2005
DGENRE=Bluegrass
TTITLE0=We Three Kings
TTITLE1=It's Beginning To Look A Lot Like Christmas
TTITLE2=Up On The Housetop
TTITLE3=Beautiful Star Of Bethlehem
TTITLE4=What Child Is This?
TTITLE5=Frosty The Snowman
TTITLE6=Do You Hear What I Hear?_Joy To The World_Little Drummer Boy
TTITLE7=Christmas Time's A'Comin'
TTITLE8=Let It Snow
TTITLE9=Happy Birthday Dear Jesus
TTITLE10=God Rest Ye Merry Gentlemen
TTITLE11=Silent Night
TTITLE12=Jingle Bells
EXTD=
EXTT0=
EXTT1=
EXTT2=
EXTT3=
EXTT4=
EXTT5=
EXTT6=
EXTT7=
EXTT8=
EXTT9=
EXTT10=
EXTT11=
EXTT12=
PLAYORDER=
